<svg xmlns="http://www.w3.org/2000/svg" style="display: none;"><symbol id="star" viewBox="0 0 512 512"><title>star</title><polygon points="512,197.816 325.961,185.585 255.898,9.569 185.835,185.585 0,197.816 142.534,318.842 95.762,502.431 255.898,401.21 416.035,502.431 369.263,318.842 "/></symbol><symbol id="download" viewBox="0 0 240.811 240.811"><title>download</title><path id="Expand_More" d="M220.088,57.667l-99.671,99.695L20.746,57.655c-4.752-4.752-12.439-4.752-17.191,0 c-4.74,4.752-4.74,12.451,0,17.203l108.261,108.297l0,0l0,0c4.74,4.752,12.439,4.752,17.179,0L237.256,74.859 c4.74-4.752,4.74-12.463,0-17.215C232.528,52.915,224.828,52.915,220.088,57.667z"/></symbol><symbol id="loupe" viewBox="0 0 512.005 512.005"><title>loupe</title><path d="M505.749,475.587l-145.6-145.6c28.203-34.837,45.184-79.104,45.184-127.317c0-111.744-90.923-202.667-202.667-202.667 S0,90.925,0,202.669s90.923,202.667,202.667,202.667c48.213,0,92.48-16.981,127.317-45.184l145.6,145.6 c4.16,4.16,9.621,6.251,15.083,6.251s10.923-2.091,15.083-6.251C514.091,497.411,514.091,483.928,505.749,475.587z M202.667,362.669c-88.235,0-160-71.765-160-160s71.765-160,160-160s160,71.765,160,160S290.901,362.669,202.667,362.669z"/></symbol><symbol id="left-arrow" viewBox="0 0 512 512"><title>left-arrow</title><path d="M492,236H68.442l70.164-69.824c7.829-7.792,7.859-20.455,0.067-28.284c-7.792-7.83-20.456-7.859-28.285-0.068 l-104.504,104c-0.007,0.006-0.012,0.013-0.018,0.019c-7.809,7.792-7.834,20.496-0.002,28.314c0.007,0.006,0.012,0.013,0.018,0.019 l104.504,104c7.828,7.79,20.492,7.763,28.285-0.068c7.792-7.829,7.762-20.492-0.067-28.284L68.442,276H492 c11.046,0,20-8.954,20-20C512,244.954,503.046,236,492,236z"/></symbol><symbol id="gps" viewBox="0 0 512 512"><title>gps</title><g> <path style="fill:#303C42;" d="M501.333,245.333H447.46c-5.388-97.341-83.443-175.405-180.793-180.793V10.667 C266.667,4.771,261.896,0,256,0c-5.896,0-10.667,4.771-10.667,10.667V64.54c-97.35,5.388-175.405,83.452-180.793,180.793H10.667 C4.771,245.333,0,250.104,0,256c0,5.896,4.771,10.667,10.667,10.667H64.54c5.388,97.341,83.443,175.405,180.793,180.793v53.874 c0,5.896,4.771,10.667,10.667,10.667c5.896,0,10.667-4.771,10.667-10.667V447.46c97.35-5.388,175.405-83.452,180.793-180.793 h53.874c5.896,0,10.667-4.771,10.667-10.667C512,250.104,507.229,245.333,501.333,245.333z M256,426.667 c-94.104,0-170.667-76.563-170.667-170.667S161.896,85.333,256,85.333S426.667,161.896,426.667,256S350.104,426.667,256,426.667z"/> <path style="fill:#303C42;" d="M256,170.667c-47.063,0-85.333,38.281-85.333,85.333s38.271,85.333,85.333,85.333 s85.333-38.281,85.333-85.333S303.063,170.667,256,170.667z"/> </g><linearGradient id="SVGID_1_" gradientUnits="userSpaceOnUse" x1="-44.6025" y1="639.1005" x2="-24.8038" y2="629.8682" gradientTransform="matrix(21.3333 0 0 -21.3333 996.3334 13791.667)"> <stop offset="0" style="stop-color:#FFFFFF;stop-opacity:0.2"/> <stop offset="1" style="stop-color:#FFFFFF;stop-opacity:0"/> </linearGradient><path style="fill:url(#SVGID_1_);" d="M501.333,245.333H447.46c-5.388-97.341-83.443-175.405-180.793-180.793V10.667 C266.667,4.771,261.896,0,256,0c-5.896,0-10.667,4.771-10.667,10.667V64.54c-97.35,5.388-175.405,83.452-180.793,180.793H10.667 C4.771,245.333,0,250.104,0,256c0,5.896,4.771,10.667,10.667,10.667H64.54c5.388,97.341,83.443,175.405,180.793,180.793v53.874 c0,5.896,4.771,10.667,10.667,10.667c5.896,0,10.667-4.771,10.667-10.667V447.46c97.35-5.388,175.405-83.452,180.793-180.793h53.874 c5.896,0,10.667-4.771,10.667-10.667C512,250.104,507.229,245.333,501.333,245.333z M256,426.667 c-94.104,0-170.667-76.563-170.667-170.667S161.896,85.333,256,85.333S426.667,161.896,426.667,256S350.104,426.667,256,426.667z M256,170.667c-47.063,0-85.333,38.281-85.333,85.333s38.271,85.333,85.333,85.333s85.333-38.281,85.333-85.333 S303.063,170.667,256,170.667z"/></symbol></svg>